<svg xmlns="http://www.w3.org/2000/svg" viewBox="0 0 200 200" width="200" height="200">
  <!-- Head -->
  <path d="M100 20 Q80 60, 100 80 Q120 60, 100 20 Z" fill="#6a0dad" stroke="#000" stroke-width="2"/>
  <!-- Eyes -->
  <ellipse cx="80" cy="50" rx="10" ry="15" fill="#FFD700"/>
  <ellipse cx="120" cy="50" rx="10" ry="15" fill="#FFD700"/>
  <!-- Pupils -->
  <circle cx="80" cy="50" r="5" fill="#000"/>
  <circle cx="120" cy="50" r="5" fill="#000"/>
  <!-- Mouth -->
  <path d="M80 75 Q100 90, 120 75" stroke="#000" stroke-width="2" fill="none"/>
  <!-- Teeth -->
  <polygon points="90,85 95,95 100,85 105,95 110,85" fill="#FFD700" stroke="#000" stroke-width="2"/>
  <!-- Body -->
  <polygon points="80,90 100,160 120,90" fill="#6a0dad" stroke="#000" stroke-width="2"/>
  <!-- Arms -->
  <path d="M60 100 Q70 80, 80 100" fill="#6a0dad" stroke="#000" stroke-width="2"/>
  <path d="M140 100 Q130 80, 120 100" fill="#6a0dad" stroke="#000" stroke-width="2"/>
  <!-- Legs -->
  <path d="M70 160 Q80 140, 90 160" fill="#6a0dad" stroke="#000" stroke-width="2"/>
  <path d="M130 160 Q120 140, 110 160" fill="#6a0dad" stroke="#000" stroke-width="2"/>
</svg>
