<svg xmlns="http://www.w3.org/2000/svg" viewBox="0 0 800 400" width="800" height="400">
  <!-- Sky -->
  <rect width="800" height="400" fill="#0e1a52"/>
  
  <!-- Buildings -->
  <rect x="50" y="200" width="100" height="200" fill="#2F4F4F" stroke="#000" stroke-width="2"/>
  <rect x="200" y="150" width="150" height="250" fill="#2E8B57" stroke="#000" stroke-width="2"/>
  <rect x="400" y="100" width="100" height="300" fill="#556B2F" stroke="#000" stroke-width="2"/>
  <rect x="550" y="180" width="120" height="220" fill="#8B4513" stroke="#000" stroke-width="2"/>
  <rect x="700" y="130" width="80" height="270" fill="#4682B4" stroke="#000" stroke-width="2"/>

  <!-- Windows -->
  <rect x="70" y="220" width="20" height="20" fill="#FFF" />
  <rect x="110" y="220" width="20" height="20" fill="#FFF" />
  <rect x="70" y="260" width="20" height="20" fill="#FFF" />
  <rect x="110" y="260" width="20" height="20" fill="#FFF" />
  <rect x="70" y="300" width="20" height="20" fill="#FFF" />
  <rect x="110" y="300" width="20" height="20" fill="#FFF" />
  <rect x="70" y="340" width="20" height="20" fill="#FFF" />
  <rect x="110" y="340" width="20" height="20" fill="#FFF" />

  <rect x="220" y="180" width="30" height="30" fill="#FFF" />
  <rect x="270" y="180" width="30" height="30" fill="#FFF" />
  <rect x="220" y="230" width="30" height="30" fill="#FFF" />
  <rect x="270" y="230" width="30" height="30" fill="#FFF" />
  <rect x="220" y="280" width="30" height="30" fill="#FFF" />
  <rect x="270" y="280" width="30" height="30" fill="#FFF" />
  <rect x="220" y="330" width="30" height="30" fill="#FFF" />
  <rect x="270" y="330" width="30" height="30" fill="#FFF" />

  <rect x="420" y="140" width="20" height="20" fill="#FFF" />
  <rect x="460" y="140" width="20" height="20" fill="#FFF" />
  <rect x="420" y="180" width="20" height="20" fill="#FFF" />
  <rect x="460" y="180" width="20" height="20" fill="#FFF" />
  <rect x="420" y="220" width="20" height="20" fill="#FFF" />
  <rect x="460" y="220" width="20" height="20" fill="#FFF" />
  <rect x="420" y="260" width="20" height="20" fill="#FFF" />
  <rect x="460" y="260" width="20" height="20" fill="#FFF" />
  <rect x="420" y="300" width="20" height="20" fill="#FFF" />
  <rect x="460" y="300" width="20" height="20" fill="#FFF" />
  <rect x="420" y="340" width="20" height="20" fill="#FFF" />
  <rect x="460" y="340" width="20" height="20" fill="#FFF" />

  <rect x="570" y="220" width="30" height="30" fill="#FFF" />
  <rect x="620" y="220" width="30" height="30" fill="#FFF" />
  <rect x="570" y="270" width="30" height="30" fill="#FFF" />
  <rect x="620" y="270" width="30" height="30" fill="#FFF" />
  <rect x="570" y="320" width="30" height="30" fill="#FFF" />
  <rect x="620" y="320" width="30" height="30" fill="#FFF" />

  <rect x="720" y="180" width="20" height="20" fill="#FFF" />
  <rect x="750" y="180" width="20" height="20" fill="#FFF" />
  <rect x="720" y="220" width="20" height="20" fill="#FFF" />
  <rect x="750" y="220" width="20" height="20" fill="#FFF" />
  <rect x="720" y="260" width="20" height="20" fill="#FFF" />
  <rect x="750" y="260" width="20" height="20" fill="#FFF" />
  <rect x="720" y="300" width="20" height="20" fill="#FFF" />
  <rect x="750" y="300" width="20" height="20" fill="#FFF" />
  <rect x="720" y="340" width="20" height="20" fill="#FFF" />
  <rect x="750" y="340" width="20" height="20" fill="#FFF" />
</svg>
